<?xml version="1.0" encoding="UTF-8" ?>
<svg version="1.1" width="40" height="40" xmlns="http://www.w3.org/2000/svg" shape-rendering="crispEdges">
<rect x="8" y="13" width="1" height="1" fill="#464646" />
<rect x="9" y="13" width="1" height="1" fill="#464646" />
<rect x="10" y="13" width="1" height="1" fill="#464646" />
<rect x="11" y="13" width="1" height="1" fill="#464646" />
<rect x="12" y="13" width="1" height="1" fill="#464646" />
<rect x="13" y="13" width="1" height="1" fill="#464646" />
<rect x="14" y="13" width="1" height="1" fill="#464646" />
<rect x="15" y="13" width="1" height="1" fill="#464646" />
<rect x="16" y="13" width="1" height="1" fill="#464646" />
<rect x="17" y="13" width="1" height="1" fill="#464646" />
<rect x="18" y="13" width="1" height="1" fill="#464646" />
<rect x="19" y="13" width="1" height="1" fill="#464646" />
<rect x="20" y="13" width="1" height="1" fill="#464646" />
<rect x="21" y="13" width="1" height="1" fill="#464646" />
<rect x="25" y="13" width="1" height="1" fill="#464646" />
<rect x="26" y="13" width="1" height="1" fill="#464646" />
<rect x="27" y="13" width="1" height="1" fill="#464646" />
<rect x="28" y="13" width="1" height="1" fill="#464646" />
<rect x="29" y="13" width="1" height="1" fill="#464646" />
<rect x="30" y="13" width="1" height="1" fill="#464646" />
<rect x="31" y="13" width="1" height="1" fill="#464646" />
<rect x="32" y="13" width="1" height="1" fill="#464646" />
<rect x="33" y="13" width="1" height="1" fill="#464646" />
<rect x="34" y="13" width="1" height="1" fill="#464646" />
<rect x="35" y="13" width="1" height="1" fill="#464646" />
<rect x="36" y="13" width="1" height="1" fill="#464646" />
<rect x="37" y="13" width="1" height="1" fill="#464646" />
<rect x="38" y="13" width="1" height="1" fill="#464646" />
<rect x="8" y="14" width="1" height="1" fill="#464646" />
<rect x="9" y="14" width="1" height="1" fill="#464646" />
<rect x="10" y="14" width="1" height="1" fill="#464646" />
<rect x="11" y="14" width="1" height="1" fill="#464646" />
<rect x="12" y="14" width="1" height="1" fill="#464646" />
<rect x="13" y="14" width="1" height="1" fill="#464646" />
<rect x="14" y="14" width="1" height="1" fill="#464646" />
<rect x="15" y="14" width="1" height="1" fill="#464646" />
<rect x="16" y="14" width="1" height="1" fill="#464646" />
<rect x="17" y="14" width="1" height="1" fill="#464646" />
<rect x="18" y="14" width="1" height="1" fill="#464646" />
<rect x="19" y="14" width="1" height="1" fill="#464646" />
<rect x="20" y="14" width="1" height="1" fill="#464646" />
<rect x="21" y="14" width="1" height="1" fill="#464646" />
<rect x="25" y="14" width="1" height="1" fill="#464646" />
<rect x="26" y="14" width="1" height="1" fill="#464646" />
<rect x="27" y="14" width="1" height="1" fill="#464646" />
<rect x="28" y="14" width="1" height="1" fill="#464646" />
<rect x="29" y="14" width="1" height="1" fill="#464646" />
<rect x="30" y="14" width="1" height="1" fill="#464646" />
<rect x="31" y="14" width="1" height="1" fill="#464646" />
<rect x="32" y="14" width="1" height="1" fill="#464646" />
<rect x="33" y="14" width="1" height="1" fill="#464646" />
<rect x="34" y="14" width="1" height="1" fill="#464646" />
<rect x="35" y="14" width="1" height="1" fill="#464646" />
<rect x="36" y="14" width="1" height="1" fill="#464646" />
<rect x="37" y="14" width="1" height="1" fill="#464646" />
<rect x="38" y="14" width="1" height="1" fill="#464646" />
<rect x="8" y="15" width="1" height="1" fill="#464646" />
<rect x="9" y="15" width="1" height="1" fill="#464646" />
<rect x="10" y="15" width="1" height="1" fill="#464646" />
<rect x="11" y="15" width="1" height="1" fill="#464646" />
<rect x="12" y="15" width="1" height="1" fill="#464646" />
<rect x="13" y="15" width="1" height="1" fill="#464646" />
<rect x="14" y="15" width="1" height="1" fill="#464646" />
<rect x="15" y="15" width="1" height="1" fill="#464646" />
<rect x="16" y="15" width="1" height="1" fill="#464646" />
<rect x="17" y="15" width="1" height="1" fill="#E8E8E8" />
<rect x="18" y="15" width="1" height="1" fill="#E8E8E8" />
<rect x="19" y="15" width="1" height="1" fill="#464646" />
<rect x="20" y="15" width="1" height="1" fill="#464646" />
<rect x="21" y="15" width="1" height="1" fill="#464646" />
<rect x="25" y="15" width="1" height="1" fill="#464646" />
<rect x="26" y="15" width="1" height="1" fill="#464646" />
<rect x="27" y="15" width="1" height="1" fill="#464646" />
<rect x="28" y="15" width="1" height="1" fill="#464646" />
<rect x="29" y="15" width="1" height="1" fill="#464646" />
<rect x="30" y="15" width="1" height="1" fill="#464646" />
<rect x="31" y="15" width="1" height="1" fill="#464646" />
<rect x="32" y="15" width="1" height="1" fill="#464646" />
<rect x="33" y="15" width="1" height="1" fill="#464646" />
<rect x="34" y="15" width="1" height="1" fill="#464646" />
<rect x="35" y="15" width="1" height="1" fill="#E8E8E8" />
<rect x="36" y="15" width="1" height="1" fill="#E8E8E8" />
<rect x="37" y="15" width="1" height="1" fill="#464646" />
<rect x="38" y="15" width="1" height="1" fill="#464646" />
<rect x="8" y="16" width="1" height="1" fill="#464646" />
<rect x="9" y="16" width="1" height="1" fill="#464646" />
<rect x="10" y="16" width="1" height="1" fill="#464646" />
<rect x="11" y="16" width="1" height="1" fill="#464646" />
<rect x="12" y="16" width="1" height="1" fill="#464646" />
<rect x="13" y="16" width="1" height="1" fill="#464646" />
<rect x="14" y="16" width="1" height="1" fill="#464646" />
<rect x="15" y="16" width="1" height="1" fill="#464646" />
<rect x="16" y="16" width="1" height="1" fill="#464646" />
<rect x="17" y="16" width="1" height="1" fill="#E8E8E8" />
<rect x="18" y="16" width="1" height="1" fill="#E8E8E8" />
<rect x="19" y="16" width="1" height="1" fill="#464646" />
<rect x="20" y="16" width="1" height="1" fill="#464646" />
<rect x="21" y="16" width="1" height="1" fill="#464646" />
<rect x="25" y="16" width="1" height="1" fill="#464646" />
<rect x="26" y="16" width="1" height="1" fill="#464646" />
<rect x="27" y="16" width="1" height="1" fill="#464646" />
<rect x="28" y="16" width="1" height="1" fill="#464646" />
<rect x="29" y="16" width="1" height="1" fill="#464646" />
<rect x="30" y="16" width="1" height="1" fill="#464646" />
<rect x="31" y="16" width="1" height="1" fill="#464646" />
<rect x="32" y="16" width="1" height="1" fill="#464646" />
<rect x="33" y="16" width="1" height="1" fill="#464646" />
<rect x="34" y="16" width="1" height="1" fill="#464646" />
<rect x="35" y="16" width="1" height="1" fill="#E8E8E8" />
<rect x="36" y="16" width="1" height="1" fill="#E8E8E8" />
<rect x="37" y="16" width="1" height="1" fill="#464646" />
<rect x="38" y="16" width="1" height="1" fill="#464646" />
<rect x="1" y="17" width="1" height="1" fill="#464646" />
<rect x="2" y="17" width="1" height="1" fill="#464646" />
<rect x="3" y="17" width="1" height="1" fill="#464646" />
<rect x="4" y="17" width="1" height="1" fill="#464646" />
<rect x="5" y="17" width="1" height="1" fill="#464646" />
<rect x="6" y="17" width="1" height="1" fill="#464646" />
<rect x="7" y="17" width="1" height="1" fill="#464646" />
<rect x="8" y="17" width="1" height="1" fill="#464646" />
<rect x="9" y="17" width="1" height="1" fill="#464646" />
<rect x="10" y="17" width="1" height="1" fill="#464646" />
<rect x="11" y="17" width="1" height="1" fill="#464646" />
<rect x="12" y="17" width="1" height="1" fill="#464646" />
<rect x="13" y="17" width="1" height="1" fill="#464646" />
<rect x="14" y="17" width="1" height="1" fill="#464646" />
<rect x="15" y="17" width="1" height="1" fill="#464646" />
<rect x="16" y="17" width="1" height="1" fill="#464646" />
<rect x="17" y="17" width="1" height="1" fill="#E8E8E8" />
<rect x="18" y="17" width="1" height="1" fill="#E8E8E8" />
<rect x="19" y="17" width="1" height="1" fill="#464646" />
<rect x="20" y="17" width="1" height="1" fill="#464646" />
<rect x="21" y="17" width="1" height="1" fill="#464646" />
<rect x="22" y="17" width="1" height="1" fill="#464646" />
<rect x="23" y="17" width="1" height="1" fill="#464646" />
<rect x="24" y="17" width="1" height="1" fill="#464646" />
<rect x="25" y="17" width="1" height="1" fill="#464646" />
<rect x="26" y="17" width="1" height="1" fill="#464646" />
<rect x="27" y="17" width="1" height="1" fill="#464646" />
<rect x="28" y="17" width="1" height="1" fill="#464646" />
<rect x="29" y="17" width="1" height="1" fill="#464646" />
<rect x="30" y="17" width="1" height="1" fill="#464646" />
<rect x="31" y="17" width="1" height="1" fill="#464646" />
<rect x="32" y="17" width="1" height="1" fill="#464646" />
<rect x="33" y="17" width="1" height="1" fill="#464646" />
<rect x="34" y="17" width="1" height="1" fill="#464646" />
<rect x="35" y="17" width="1" height="1" fill="#E8E8E8" />
<rect x="36" y="17" width="1" height="1" fill="#E8E8E8" />
<rect x="37" y="17" width="1" height="1" fill="#464646" />
<rect x="38" y="17" width="1" height="1" fill="#464646" />
<rect x="1" y="18" width="1" height="1" fill="#464646" />
<rect x="2" y="18" width="1" height="1" fill="#464646" />
<rect x="3" y="18" width="1" height="1" fill="#464646" />
<rect x="4" y="18" width="1" height="1" fill="#464646" />
<rect x="5" y="18" width="1" height="1" fill="#464646" />
<rect x="6" y="18" width="1" height="1" fill="#464646" />
<rect x="7" y="18" width="1" height="1" fill="#464646" />
<rect x="8" y="18" width="1" height="1" fill="#464646" />
<rect x="9" y="18" width="1" height="1" fill="#464646" />
<rect x="10" y="18" width="1" height="1" fill="#464646" />
<rect x="11" y="18" width="1" height="1" fill="#464646" />
<rect x="12" y="18" width="1" height="1" fill="#464646" />
<rect x="13" y="18" width="1" height="1" fill="#464646" />
<rect x="14" y="18" width="1" height="1" fill="#464646" />
<rect x="15" y="18" width="1" height="1" fill="#464646" />
<rect x="16" y="18" width="1" height="1" fill="#464646" />
<rect x="17" y="18" width="1" height="1" fill="#E8E8E8" />
<rect x="18" y="18" width="1" height="1" fill="#E8E8E8" />
<rect x="19" y="18" width="1" height="1" fill="#464646" />
<rect x="20" y="18" width="1" height="1" fill="#464646" />
<rect x="21" y="18" width="1" height="1" fill="#464646" />
<rect x="22" y="18" width="1" height="1" fill="#464646" />
<rect x="23" y="18" width="1" height="1" fill="#464646" />
<rect x="24" y="18" width="1" height="1" fill="#464646" />
<rect x="25" y="18" width="1" height="1" fill="#464646" />
<rect x="26" y="18" width="1" height="1" fill="#464646" />
<rect x="27" y="18" width="1" height="1" fill="#464646" />
<rect x="28" y="18" width="1" height="1" fill="#464646" />
<rect x="29" y="18" width="1" height="1" fill="#464646" />
<rect x="30" y="18" width="1" height="1" fill="#464646" />
<rect x="31" y="18" width="1" height="1" fill="#464646" />
<rect x="32" y="18" width="1" height="1" fill="#464646" />
<rect x="33" y="18" width="1" height="1" fill="#464646" />
<rect x="34" y="18" width="1" height="1" fill="#464646" />
<rect x="35" y="18" width="1" height="1" fill="#E8E8E8" />
<rect x="36" y="18" width="1" height="1" fill="#E8E8E8" />
<rect x="37" y="18" width="1" height="1" fill="#464646" />
<rect x="38" y="18" width="1" height="1" fill="#464646" />
<rect x="1" y="19" width="1" height="1" fill="#464646" />
<rect x="2" y="19" width="1" height="1" fill="#464646" />
<rect x="3" y="19" width="1" height="1" fill="#464646" />
<rect x="4" y="19" width="1" height="1" fill="#464646" />
<rect x="5" y="19" width="1" height="1" fill="#464646" />
<rect x="6" y="19" width="1" height="1" fill="#464646" />
<rect x="7" y="19" width="1" height="1" fill="#464646" />
<rect x="8" y="19" width="1" height="1" fill="#464646" />
<rect x="9" y="19" width="1" height="1" fill="#464646" />
<rect x="10" y="19" width="1" height="1" fill="#464646" />
<rect x="11" y="19" width="1" height="1" fill="#464646" />
<rect x="12" y="19" width="1" height="1" fill="#464646" />
<rect x="13" y="19" width="1" height="1" fill="#464646" />
<rect x="14" y="19" width="1" height="1" fill="#464646" />
<rect x="15" y="19" width="1" height="1" fill="#464646" />
<rect x="16" y="19" width="1" height="1" fill="#464646" />
<rect x="17" y="19" width="1" height="1" fill="#E8E8E8" />
<rect x="18" y="19" width="1" height="1" fill="#E8E8E8" />
<rect x="19" y="19" width="1" height="1" fill="#464646" />
<rect x="20" y="19" width="1" height="1" fill="#464646" />
<rect x="21" y="19" width="1" height="1" fill="#464646" />
<rect x="22" y="19" width="1" height="1" fill="#464646" />
<rect x="23" y="19" width="1" height="1" fill="#464646" />
<rect x="24" y="19" width="1" height="1" fill="#464646" />
<rect x="25" y="19" width="1" height="1" fill="#464646" />
<rect x="26" y="19" width="1" height="1" fill="#464646" />
<rect x="27" y="19" width="1" height="1" fill="#464646" />
<rect x="28" y="19" width="1" height="1" fill="#464646" />
<rect x="29" y="19" width="1" height="1" fill="#464646" />
<rect x="30" y="19" width="1" height="1" fill="#464646" />
<rect x="31" y="19" width="1" height="1" fill="#464646" />
<rect x="32" y="19" width="1" height="1" fill="#464646" />
<rect x="33" y="19" width="1" height="1" fill="#464646" />
<rect x="34" y="19" width="1" height="1" fill="#464646" />
<rect x="35" y="19" width="1" height="1" fill="#E8E8E8" />
<rect x="36" y="19" width="1" height="1" fill="#E8E8E8" />
<rect x="37" y="19" width="1" height="1" fill="#464646" />
<rect x="38" y="19" width="1" height="1" fill="#464646" />
<rect x="1" y="20" width="1" height="1" fill="#464646" />
<rect x="2" y="20" width="1" height="1" fill="#464646" />
<rect x="3" y="20" width="1" height="1" fill="#464646" />
<rect x="8" y="20" width="1" height="1" fill="#464646" />
<rect x="9" y="20" width="1" height="1" fill="#464646" />
<rect x="10" y="20" width="1" height="1" fill="#464646" />
<rect x="11" y="20" width="1" height="1" fill="#464646" />
<rect x="12" y="20" width="1" height="1" fill="#464646" />
<rect x="13" y="20" width="1" height="1" fill="#464646" />
<rect x="14" y="20" width="1" height="1" fill="#464646" />
<rect x="15" y="20" width="1" height="1" fill="#464646" />
<rect x="16" y="20" width="1" height="1" fill="#464646" />
<rect x="17" y="20" width="1" height="1" fill="#464646" />
<rect x="18" y="20" width="1" height="1" fill="#464646" />
<rect x="19" y="20" width="1" height="1" fill="#464646" />
<rect x="20" y="20" width="1" height="1" fill="#464646" />
<rect x="21" y="20" width="1" height="1" fill="#464646" />
<rect x="25" y="20" width="1" height="1" fill="#464646" />
<rect x="26" y="20" width="1" height="1" fill="#464646" />
<rect x="27" y="20" width="1" height="1" fill="#464646" />
<rect x="28" y="20" width="1" height="1" fill="#464646" />
<rect x="29" y="20" width="1" height="1" fill="#464646" />
<rect x="30" y="20" width="1" height="1" fill="#464646" />
<rect x="31" y="20" width="1" height="1" fill="#464646" />
<rect x="32" y="20" width="1" height="1" fill="#464646" />
<rect x="33" y="20" width="1" height="1" fill="#464646" />
<rect x="34" y="20" width="1" height="1" fill="#464646" />
<rect x="35" y="20" width="1" height="1" fill="#464646" />
<rect x="36" y="20" width="1" height="1" fill="#464646" />
<rect x="37" y="20" width="1" height="1" fill="#464646" />
<rect x="38" y="20" width="1" height="1" fill="#464646" />
<rect x="1" y="21" width="1" height="1" fill="#464646" />
<rect x="2" y="21" width="1" height="1" fill="#464646" />
<rect x="3" y="21" width="1" height="1" fill="#464646" />
<rect x="8" y="21" width="1" height="1" fill="#464646" />
<rect x="9" y="21" width="1" height="1" fill="#464646" />
<rect x="10" y="21" width="1" height="1" fill="#464646" />
<rect x="11" y="21" width="1" height="1" fill="#464646" />
<rect x="12" y="21" width="1" height="1" fill="#464646" />
<rect x="13" y="21" width="1" height="1" fill="#464646" />
<rect x="14" y="21" width="1" height="1" fill="#464646" />
<rect x="15" y="21" width="1" height="1" fill="#464646" />
<rect x="16" y="21" width="1" height="1" fill="#464646" />
<rect x="17" y="21" width="1" height="1" fill="#464646" />
<rect x="18" y="21" width="1" height="1" fill="#464646" />
<rect x="19" y="21" width="1" height="1" fill="#464646" />
<rect x="20" y="21" width="1" height="1" fill="#464646" />
<rect x="21" y="21" width="1" height="1" fill="#464646" />
<rect x="25" y="21" width="1" height="1" fill="#464646" />
<rect x="26" y="21" width="1" height="1" fill="#464646" />
<rect x="27" y="21" width="1" height="1" fill="#464646" />
<rect x="28" y="21" width="1" height="1" fill="#464646" />
<rect x="29" y="21" width="1" height="1" fill="#464646" />
<rect x="30" y="21" width="1" height="1" fill="#464646" />
<rect x="31" y="21" width="1" height="1" fill="#464646" />
<rect x="32" y="21" width="1" height="1" fill="#464646" />
<rect x="33" y="21" width="1" height="1" fill="#464646" />
<rect x="34" y="21" width="1" height="1" fill="#464646" />
<rect x="35" y="21" width="1" height="1" fill="#464646" />
<rect x="36" y="21" width="1" height="1" fill="#464646" />
<rect x="37" y="21" width="1" height="1" fill="#464646" />
<rect x="38" y="21" width="1" height="1" fill="#464646" />
<rect x="1" y="22" width="1" height="1" fill="#464646" />
<rect x="2" y="22" width="1" height="1" fill="#464646" />
<rect x="3" y="22" width="1" height="1" fill="#464646" />
<rect x="8" y="22" width="1" height="1" fill="#464646" />
<rect x="9" y="22" width="1" height="1" fill="#464646" />
<rect x="10" y="22" width="1" height="1" fill="#464646" />
<rect x="11" y="22" width="1" height="1" fill="#464646" />
<rect x="12" y="22" width="1" height="1" fill="#464646" />
<rect x="13" y="22" width="1" height="1" fill="#464646" />
<rect x="14" y="22" width="1" height="1" fill="#464646" />
<rect x="15" y="22" width="1" height="1" fill="#464646" />
<rect x="16" y="22" width="1" height="1" fill="#464646" />
<rect x="17" y="22" width="1" height="1" fill="#464646" />
<rect x="18" y="22" width="1" height="1" fill="#464646" />
<rect x="19" y="22" width="1" height="1" fill="#464646" />
<rect x="20" y="22" width="1" height="1" fill="#464646" />
<rect x="21" y="22" width="1" height="1" fill="#464646" />
<rect x="25" y="22" width="1" height="1" fill="#464646" />
<rect x="26" y="22" width="1" height="1" fill="#464646" />
<rect x="27" y="22" width="1" height="1" fill="#464646" />
<rect x="28" y="22" width="1" height="1" fill="#464646" />
<rect x="29" y="22" width="1" height="1" fill="#464646" />
<rect x="30" y="22" width="1" height="1" fill="#464646" />
<rect x="31" y="22" width="1" height="1" fill="#464646" />
<rect x="32" y="22" width="1" height="1" fill="#464646" />
<rect x="33" y="22" width="1" height="1" fill="#464646" />
<rect x="34" y="22" width="1" height="1" fill="#464646" />
<rect x="35" y="22" width="1" height="1" fill="#464646" />
<rect x="36" y="22" width="1" height="1" fill="#464646" />
<rect x="37" y="22" width="1" height="1" fill="#464646" />
<rect x="38" y="22" width="1" height="1" fill="#464646" />
<rect x="1" y="23" width="1" height="1" fill="#464646" />
<rect x="2" y="23" width="1" height="1" fill="#464646" />
<rect x="3" y="23" width="1" height="1" fill="#464646" />
<rect x="8" y="23" width="1" height="1" fill="#464646" />
<rect x="9" y="23" width="1" height="1" fill="#464646" />
<rect x="10" y="23" width="1" height="1" fill="#464646" />
<rect x="11" y="23" width="1" height="1" fill="#464646" />
<rect x="12" y="23" width="1" height="1" fill="#464646" />
<rect x="13" y="23" width="1" height="1" fill="#464646" />
<rect x="14" y="23" width="1" height="1" fill="#464646" />
<rect x="15" y="23" width="1" height="1" fill="#464646" />
<rect x="16" y="23" width="1" height="1" fill="#464646" />
<rect x="17" y="23" width="1" height="1" fill="#464646" />
<rect x="18" y="23" width="1" height="1" fill="#464646" />
<rect x="19" y="23" width="1" height="1" fill="#464646" />
<rect x="20" y="23" width="1" height="1" fill="#464646" />
<rect x="21" y="23" width="1" height="1" fill="#464646" />
<rect x="25" y="23" width="1" height="1" fill="#464646" />
<rect x="26" y="23" width="1" height="1" fill="#464646" />
<rect x="27" y="23" width="1" height="1" fill="#464646" />
<rect x="28" y="23" width="1" height="1" fill="#464646" />
<rect x="29" y="23" width="1" height="1" fill="#464646" />
<rect x="30" y="23" width="1" height="1" fill="#464646" />
<rect x="31" y="23" width="1" height="1" fill="#464646" />
<rect x="32" y="23" width="1" height="1" fill="#464646" />
<rect x="33" y="23" width="1" height="1" fill="#464646" />
<rect x="34" y="23" width="1" height="1" fill="#464646" />
<rect x="35" y="23" width="1" height="1" fill="#464646" />
<rect x="36" y="23" width="1" height="1" fill="#464646" />
<rect x="37" y="23" width="1" height="1" fill="#464646" />
<rect x="38" y="23" width="1" height="1" fill="#464646" />
<rect x="1" y="24" width="1" height="1" fill="#464646" />
<rect x="2" y="24" width="1" height="1" fill="#464646" />
<rect x="3" y="24" width="1" height="1" fill="#464646" />
<rect x="8" y="24" width="1" height="1" fill="#464646" />
<rect x="9" y="24" width="1" height="1" fill="#464646" />
<rect x="10" y="24" width="1" height="1" fill="#464646" />
<rect x="11" y="24" width="1" height="1" fill="#464646" />
<rect x="12" y="24" width="1" height="1" fill="#464646" />
<rect x="13" y="24" width="1" height="1" fill="#464646" />
<rect x="14" y="24" width="1" height="1" fill="#464646" />
<rect x="15" y="24" width="1" height="1" fill="#464646" />
<rect x="16" y="24" width="1" height="1" fill="#464646" />
<rect x="17" y="24" width="1" height="1" fill="#464646" />
<rect x="18" y="24" width="1" height="1" fill="#464646" />
<rect x="19" y="24" width="1" height="1" fill="#464646" />
<rect x="20" y="24" width="1" height="1" fill="#464646" />
<rect x="21" y="24" width="1" height="1" fill="#464646" />
<rect x="25" y="24" width="1" height="1" fill="#464646" />
<rect x="26" y="24" width="1" height="1" fill="#464646" />
<rect x="27" y="24" width="1" height="1" fill="#464646" />
<rect x="28" y="24" width="1" height="1" fill="#464646" />
<rect x="29" y="24" width="1" height="1" fill="#464646" />
<rect x="30" y="24" width="1" height="1" fill="#464646" />
<rect x="31" y="24" width="1" height="1" fill="#464646" />
<rect x="32" y="24" width="1" height="1" fill="#464646" />
<rect x="33" y="24" width="1" height="1" fill="#464646" />
<rect x="34" y="24" width="1" height="1" fill="#464646" />
<rect x="35" y="24" width="1" height="1" fill="#464646" />
<rect x="36" y="24" width="1" height="1" fill="#464646" />
<rect x="37" y="24" width="1" height="1" fill="#464646" />
<rect x="38" y="24" width="1" height="1" fill="#464646" />
<rect x="8" y="25" width="1" height="1" fill="#464646" />
<rect x="9" y="25" width="1" height="1" fill="#464646" />
<rect x="10" y="25" width="1" height="1" fill="#464646" />
<rect x="11" y="25" width="1" height="1" fill="#464646" />
<rect x="12" y="25" width="1" height="1" fill="#464646" />
<rect x="13" y="25" width="1" height="1" fill="#464646" />
<rect x="14" y="25" width="1" height="1" fill="#464646" />
<rect x="15" y="25" width="1" height="1" fill="#464646" />
<rect x="16" y="25" width="1" height="1" fill="#464646" />
<rect x="17" y="25" width="1" height="1" fill="#464646" />
<rect x="18" y="25" width="1" height="1" fill="#464646" />
<rect x="19" y="25" width="1" height="1" fill="#464646" />
<rect x="20" y="25" width="1" height="1" fill="#464646" />
<rect x="21" y="25" width="1" height="1" fill="#464646" />
<rect x="25" y="25" width="1" height="1" fill="#464646" />
<rect x="26" y="25" width="1" height="1" fill="#464646" />
<rect x="27" y="25" width="1" height="1" fill="#464646" />
<rect x="28" y="25" width="1" height="1" fill="#464646" />
<rect x="29" y="25" width="1" height="1" fill="#464646" />
<rect x="30" y="25" width="1" height="1" fill="#464646" />
<rect x="31" y="25" width="1" height="1" fill="#464646" />
<rect x="32" y="25" width="1" height="1" fill="#464646" />
<rect x="33" y="25" width="1" height="1" fill="#464646" />
<rect x="34" y="25" width="1" height="1" fill="#464646" />
<rect x="35" y="25" width="1" height="1" fill="#464646" />
<rect x="36" y="25" width="1" height="1" fill="#464646" />
<rect x="37" y="25" width="1" height="1" fill="#464646" />
<rect x="38" y="25" width="1" height="1" fill="#464646" />
<rect x="8" y="26" width="1" height="1" fill="#464646" />
<rect x="9" y="26" width="1" height="1" fill="#464646" />
<rect x="10" y="26" width="1" height="1" fill="#464646" />
<rect x="11" y="26" width="1" height="1" fill="#464646" />
<rect x="12" y="26" width="1" height="1" fill="#464646" />
<rect x="13" y="26" width="1" height="1" fill="#464646" />
<rect x="14" y="26" width="1" height="1" fill="#464646" />
<rect x="15" y="26" width="1" height="1" fill="#464646" />
<rect x="16" y="26" width="1" height="1" fill="#464646" />
<rect x="17" y="26" width="1" height="1" fill="#464646" />
<rect x="18" y="26" width="1" height="1" fill="#464646" />
<rect x="19" y="26" width="1" height="1" fill="#464646" />
<rect x="20" y="26" width="1" height="1" fill="#464646" />
<rect x="21" y="26" width="1" height="1" fill="#464646" />
<rect x="25" y="26" width="1" height="1" fill="#464646" />
<rect x="26" y="26" width="1" height="1" fill="#464646" />
<rect x="27" y="26" width="1" height="1" fill="#464646" />
<rect x="28" y="26" width="1" height="1" fill="#464646" />
<rect x="29" y="26" width="1" height="1" fill="#464646" />
<rect x="30" y="26" width="1" height="1" fill="#464646" />
<rect x="31" y="26" width="1" height="1" fill="#464646" />
<rect x="32" y="26" width="1" height="1" fill="#464646" />
<rect x="33" y="26" width="1" height="1" fill="#464646" />
<rect x="34" y="26" width="1" height="1" fill="#464646" />
<rect x="35" y="26" width="1" height="1" fill="#464646" />
<rect x="36" y="26" width="1" height="1" fill="#464646" />
<rect x="37" y="26" width="1" height="1" fill="#464646" />
<rect x="38" y="26" width="1" height="1" fill="#464646" />
</svg>